# xmcd CD database file
#
# Track frame offsets:
#	150
#	47854
#	73650
#	108595
#	126853
#	153517
#	178091
#	214215
#	235734
#	264896
#	272954
#	294835
#	318620
#
# Disc length: 4537 seconds
#
# Revision: 0
# Processed by: cddbd v1.5.1PL2 Copyright (c) Steve Scherf et al.
# Submitted via: CDex 1.51
#
DISCID=c611b70d
DTITLE=Various Artist - Vol. 6 Number 2 Red
DYEAR=2006
DGENRE=Jazz
TTITLE0=Carli Munoz/Maverick
TTITLE1=Onaje Allan Gumbs/Healing Zone
TTITLE2=Nachito Herrera/Song in F
TTITLE3=Farrell and Nicolls/Angel Eyes
TTITLE4=Sharon Bailey/More Than You Know
TTITLE5=Joe Lovano/Bird's Eye View
TTITLE6=Eric Nemeyer/Stablemates
TTITLE7=Cindy Blackman/All I Want
TTITLE8=Nicole Pasternak/Four
TTITLE9=Nicole Pasternak/Me
TTITLE10=Avi Rothbard/Minor Impact
TTITLE11=Sara Yervand/But Beautiful
TTITLE12=David Leonhardt/Rising Tide
EXTD=YEAR: 2006
EXTT0=
EXTT1=
EXTT2=
EXTT3=
EXTT4=
EXTT5=
EXTT6=
EXTT7=
EXTT8=
EXTT9=
EXTT10=
EXTT11=
EXTT12=
PLAYORDER=
